<?xml version="1.0" encoding="iso-8859-1"?>
<!-- Generator: Adobe Illustrator 17.1.0, SVG Export Plug-In . SVG Version: 6.00 Build 0)  -->
<!DOCTYPE svg PUBLIC "-//W3C//DTD SVG 1.1//EN" "http://www.w3.org/Graphics/SVG/1.1/DTD/svg11.dtd">
<svg version="1.1" id="Capa_1" xmlns="http://www.w3.org/2000/svg" xmlns:xlink="http://www.w3.org/1999/xlink" x="0px" y="0px"
	 viewBox="0 0 297.152 297.152" style="enable-background:new 0 0 297.152 297.152; fill:#FFFFFF;" xml:space="preserve">
<g>
	<path d="M287.075,254.206h-11.094l-22.472-38h-69.626v38h-72v-38H42.925l-22.473,38H10.077c-5.566,0-10.077,4.435-10.077,10
		s4.512,10,10.077,10h276.998c5.565,0,10.077-4.435,10.077-10S292.641,254.206,287.075,254.206z"/>
	<path d="M111.884,195.206v-15.773c0-20.028,15.972-36.263,36.001-36.263c20.027,0,35.999,16.234,35.999,36.263v15.773h57.747
		L159.097,55.405l10.912-18.396c2.628-4.459,1.143-10.146-3.315-12.773c-4.459-2.626-10.204-1.113-12.833,3.346l-5.643,9.589
		l-5.643-9.567c-2.629-4.458-8.373-5.938-12.833-3.312c-4.459,2.628-5.943,8.376-3.315,12.835l10.912,18.278L54.803,195.206H111.884
		z" stroke="white" stroke-width="3"/>
</g>
<g>
</g>
<g>
</g>
<g>
</g>
<g>
</g>
<g>
</g>
<g>
</g>
<g>
</g>
<g>
</g>
<g>
</g>
<g>
</g>
<g>
</g>
<g>
</g>
<g>
</g>
<g>
</g>
<g>
</g>
</svg>
