<svg width="40" height="40" viewBox="0 0 40 40" fill="none" xmlns="http://www.w3.org/2000/svg">
<mask id="path-1-inside-1_49_193" fill="white">
<path d="M8.75 0C9.08152 0 9.39946 0.131696 9.63388 0.366117C9.8683 0.600537 10 0.918479 10 1.25V2.5H30V1.25C30 0.918479 30.1317 0.600537 30.3661 0.366117C30.6005 0.131696 30.9185 0 31.25 0C31.5815 0 31.8995 0.131696 32.1339 0.366117C32.3683 0.600537 32.5 0.918479 32.5 1.25V2.5H35C36.3261 2.5 37.5979 3.02678 38.5355 3.96447C39.4732 4.90215 40 6.17392 40 7.5V35C40 36.3261 39.4732 37.5979 38.5355 38.5355C37.5979 39.4732 36.3261 40 35 40H5C3.67392 40 2.40215 39.4732 1.46447 38.5355C0.526784 37.5979 0 36.3261 0 35V7.5C0 6.17392 0.526784 4.90215 1.46447 3.96447C2.40215 3.02678 3.67392 2.5 5 2.5H7.5V1.25C7.5 0.918479 7.6317 0.600537 7.86612 0.366117C8.10054 0.131696 8.41848 0 8.75 0V0ZM5 5C4.33696 5 3.70107 5.26339 3.23223 5.73223C2.76339 6.20107 2.5 6.83696 2.5 7.5V10H37.5V7.5C37.5 6.83696 37.2366 6.20107 36.7678 5.73223C36.2989 5.26339 35.663 5 35 5H5ZM37.5 12.5H2.5V35C2.5 35.663 2.76339 36.2989 3.23223 36.7678C3.70107 37.2366 4.33696 37.5 5 37.5H35C35.663 37.5 36.2989 37.2366 36.7678 36.7678C37.2366 36.2989 37.5 35.663 37.5 35V12.5Z"/>
</mask>
<path d="M8.75 0C9.08152 0 9.39946 0.131696 9.63388 0.366117C9.8683 0.600537 10 0.918479 10 1.25V2.5H30V1.25C30 0.918479 30.1317 0.600537 30.3661 0.366117C30.6005 0.131696 30.9185 0 31.25 0C31.5815 0 31.8995 0.131696 32.1339 0.366117C32.3683 0.600537 32.5 0.918479 32.5 1.25V2.5H35C36.3261 2.5 37.5979 3.02678 38.5355 3.96447C39.4732 4.90215 40 6.17392 40 7.5V35C40 36.3261 39.4732 37.5979 38.5355 38.5355C37.5979 39.4732 36.3261 40 35 40H5C3.67392 40 2.40215 39.4732 1.46447 38.5355C0.526784 37.5979 0 36.3261 0 35V7.5C0 6.17392 0.526784 4.90215 1.46447 3.96447C2.40215 3.02678 3.67392 2.5 5 2.5H7.5V1.25C7.5 0.918479 7.6317 0.600537 7.86612 0.366117C8.10054 0.131696 8.41848 0 8.75 0V0ZM5 5C4.33696 5 3.70107 5.26339 3.23223 5.73223C2.76339 6.20107 2.5 6.83696 2.5 7.5V10H37.5V7.5C37.5 6.83696 37.2366 6.20107 36.7678 5.73223C36.2989 5.26339 35.663 5 35 5H5ZM37.5 12.5H2.5V35C2.5 35.663 2.76339 36.2989 3.23223 36.7678C3.70107 37.2366 4.33696 37.5 5 37.5H35C35.663 37.5 36.2989 37.2366 36.7678 36.7678C37.2366 36.2989 37.5 35.663 37.5 35V12.5Z" fill="white"/>
<path d="M8.75 0V-3H5.75V0H8.75ZM10 2.5H7V5.5H10V2.5ZM30 2.5V5.5H33V2.5H30ZM31.25 0V-3V0ZM32.5 2.5H29.5V5.5H32.5V2.5ZM0 35H-3H0ZM0 7.5H-3H0ZM5 2.5V-0.5V2.5ZM7.5 2.5V5.5H10.5V2.5H7.5ZM8.75 0V3H11.75V0H8.75ZM5 5V2V5ZM2.5 7.5H-0.5H2.5ZM2.5 10H-0.5V13H2.5V10ZM37.5 10V13H40.5V10H37.5ZM35 5V2V5ZM37.5 12.5H40.5V9.5H37.5V12.5ZM2.5 12.5V9.5H-0.5V12.5H2.5ZM2.5 35H-0.5H2.5ZM8.75 3C8.28587 3 7.84075 2.81562 7.51256 2.48744L11.7552 -1.7552C10.9582 -2.55223 9.87717 -3 8.75 -3V3ZM7.51256 2.48744C7.18438 2.15925 7 1.71413 7 1.25H13C13 0.122828 12.5522 -0.958175 11.7552 -1.7552L7.51256 2.48744ZM7 1.25V2.5H13V1.25H7ZM10 5.5H30V-0.5H10V5.5ZM33 2.5V1.25H27V2.5H33ZM33 1.25C33 1.71412 32.8156 2.15924 32.4874 2.48744L28.2448 -1.7552C27.4478 -0.95817 27 0.122836 27 1.25H33ZM32.4874 2.48744C32.1592 2.81563 31.7141 3 31.25 3V-3C30.1228 -3 29.0418 -2.55224 28.2448 -1.7552L32.4874 2.48744ZM31.25 3C30.7859 3 30.3408 2.81563 30.0126 2.48744L34.2552 -1.7552C33.4582 -2.55224 32.3772 -3 31.25 -3V3ZM30.0126 2.48744C29.6844 2.15924 29.5 1.71412 29.5 1.25H35.5C35.5 0.122836 35.0522 -0.95817 34.2552 -1.7552L30.0126 2.48744ZM29.5 1.25V2.5H35.5V1.25H29.5ZM32.5 5.5H35V-0.5H32.5V5.5ZM35 5.5C35.5304 5.5 36.0391 5.71071 36.4142 6.08579L40.6569 1.84315C39.1566 0.342855 37.1217 -0.5 35 -0.5V5.5ZM36.4142 6.08579C36.7893 6.46086 37 6.96957 37 7.5H43C43 5.37827 42.1571 3.34344 40.6569 1.84315L36.4142 6.08579ZM37 7.5V35H43V7.5H37ZM37 35C37 35.5304 36.7893 36.0391 36.4142 36.4142L40.6569 40.6569C42.1571 39.1566 43 37.1217 43 35H37ZM36.4142 36.4142C36.0391 36.7893 35.5304 37 35 37V43C37.1217 43 39.1566 42.1571 40.6569 40.6569L36.4142 36.4142ZM35 37H5V43H35V37ZM5 37C4.46957 37 3.96086 36.7893 3.58579 36.4142L-0.656854 40.6569C0.843436 42.1571 2.87827 43 5 43V37ZM3.58579 36.4142C3.21071 36.0391 3 35.5304 3 35H-3C-3 37.1217 -2.15714 39.1566 -0.656854 40.6569L3.58579 36.4142ZM3 35V7.5H-3V35H3ZM3 7.5C3 6.96957 3.21071 6.46086 3.58579 6.08579L-0.656854 1.84315C-2.15715 3.34344 -3 5.37827 -3 7.5H3ZM3.58579 6.08579C3.96086 5.71071 4.46957 5.5 5 5.5V-0.5C2.87827 -0.5 0.843437 0.342855 -0.656854 1.84315L3.58579 6.08579ZM5 5.5H7.5V-0.5H5V5.5ZM10.5 2.5V1.25H4.5V2.5H10.5ZM10.5 1.25C10.5 1.71413 10.3156 2.15925 9.98744 2.48744L5.7448 -1.7552C4.94777 -0.958175 4.5 0.122828 4.5 1.25H10.5ZM9.98744 2.48744C9.65925 2.81562 9.21413 3 8.75 3V-3C7.62283 -3 6.54183 -2.55223 5.7448 -1.7552L9.98744 2.48744ZM11.75 0V0H5.75V0H11.75ZM5 2C3.54131 2 2.14236 2.57946 1.11091 3.61091L5.35355 7.85355C5.25978 7.94732 5.13261 8 5 8V2ZM1.11091 3.61091C0.0794622 4.64236 -0.5 6.04131 -0.5 7.5H5.5C5.5 7.63261 5.44732 7.75978 5.35355 7.85355L1.11091 3.61091ZM-0.5 7.5V10H5.5V7.5H-0.5ZM2.5 13H37.5V7H2.5V13ZM40.5 10V7.5H34.5V10H40.5ZM40.5 7.5C40.5 6.04131 39.9205 4.64236 38.8891 3.61091L34.6464 7.85355C34.5527 7.75979 34.5 7.63261 34.5 7.5H40.5ZM38.8891 3.61091C37.8576 2.57946 36.4587 2 35 2V8C34.8674 8 34.7402 7.94732 34.6464 7.85355L38.8891 3.61091ZM35 2H5V8H35V2ZM37.5 9.5H2.5V15.5H37.5V9.5ZM-0.5 12.5V35H5.5V12.5H-0.5ZM-0.5 35C-0.5 36.4587 0.0794627 37.8576 1.11091 38.8891L5.35355 34.6464C5.44732 34.7402 5.5 34.8674 5.5 35H-0.5ZM1.11091 38.8891C2.14236 39.9205 3.54131 40.5 5 40.5V34.5C5.13261 34.5 5.25979 34.5527 5.35355 34.6464L1.11091 38.8891ZM5 40.5H35V34.5H5V40.5ZM35 40.5C36.4587 40.5 37.8576 39.9205 38.8891 38.8891L34.6464 34.6464C34.7402 34.5527 34.8674 34.5 35 34.5V40.5ZM38.8891 38.8891C39.9205 37.8576 40.5 36.4587 40.5 35H34.5C34.5 34.8674 34.5527 34.7402 34.6464 34.6464L38.8891 38.8891ZM40.5 35V12.5H34.5V35H40.5Z" fill="white" mask="url(#path-1-inside-1_49_193)"/>
<path d="M29 21V19H31V21H29Z" fill="white" stroke="white" stroke-width="3"/>
</svg>
