<svg width="40" height="40" viewBox="0 0 40 40" fill="none" xmlns="http://www.w3.org/2000/svg">
<mask id="path-1-inside-1_40_49" fill="white">
<path d="M32.5 17.5H30V20H32.5C33.4943 20.001 34.4475 20.3964 35.1506 21.0994C35.8536 21.8025 36.249 22.7557 36.25 23.75V28.75H38.75V23.75C38.748 22.093 38.0889 20.5044 36.9172 19.3328C35.7456 18.1611 34.157 17.502 32.5 17.5Z"/>
</mask>
<path d="M32.5 17.5H30V20H32.5C33.4943 20.001 34.4475 20.3964 35.1506 21.0994C35.8536 21.8025 36.249 22.7557 36.25 23.75V28.75H38.75V23.75C38.748 22.093 38.0889 20.5044 36.9172 19.3328C35.7456 18.1611 34.157 17.502 32.5 17.5Z" fill="white"/>
<path d="M32.5 17.5L32.5036 14.5H32.5V17.5ZM30 17.5V14.5H27V17.5H30ZM30 20H27V23H30V20ZM32.5 20L32.503 17H32.5V20ZM36.25 23.75H39.25L39.25 23.747L36.25 23.75ZM36.25 28.75H33.25V31.75H36.25V28.75ZM38.75 28.75V31.75H41.75V28.75H38.75ZM38.75 23.75H41.75L41.75 23.7464L38.75 23.75ZM32.5 14.5H30V20.5H32.5V14.5ZM27 17.5V20H33V17.5H27ZM30 23H32.5V17H30V23ZM32.497 23C32.6967 23.0002 32.8881 23.0796 33.0292 23.2208L37.2719 18.9781C36.007 17.7132 34.2919 17.0018 32.503 17L32.497 23ZM33.0292 23.2208C33.1704 23.3619 33.2498 23.5533 33.25 23.753L39.25 23.747C39.2482 21.9581 38.5368 20.243 37.2719 18.9781L33.0292 23.2208ZM33.25 23.75V28.75H39.25V23.75H33.25ZM36.25 31.75H38.75V25.75H36.25V31.75ZM41.75 28.75V23.75H35.75V28.75H41.75ZM41.75 23.7464C41.7471 21.295 40.7719 18.9449 39.0385 17.2115L34.7959 21.4541C35.4058 22.064 35.749 22.891 35.75 23.7536L41.75 23.7464ZM39.0385 17.2115C37.3051 15.4781 34.955 14.5029 32.5036 14.5L32.4964 20.5C33.359 20.501 34.186 20.8442 34.7959 21.4541L39.0385 17.2115Z" fill="white" mask="url(#path-1-inside-1_40_49)"/>
<mask id="path-3-inside-2_40_49" fill="white">
<path d="M30 5C30.7417 5 31.4667 5.21993 32.0834 5.63199C32.7001 6.04404 33.1807 6.62971 33.4646 7.31494C33.7484 8.00016 33.8226 8.75416 33.6779 9.48159C33.5333 10.209 33.1761 10.8772 32.6517 11.4017C32.1272 11.9261 31.459 12.2833 30.7316 12.4279C30.0042 12.5726 29.2502 12.4984 28.5649 12.2145C27.8797 11.9307 27.294 11.4501 26.882 10.8334C26.4699 10.2167 26.25 9.49168 26.25 8.75C26.25 7.75544 26.6451 6.80161 27.3484 6.09835C28.0516 5.39509 29.0054 5 30 5ZM30 2.5C28.7639 2.5 27.5555 2.86656 26.5277 3.55331C25.4999 4.24007 24.6988 5.21619 24.2258 6.35823C23.7527 7.50027 23.6289 8.75693 23.8701 9.96931C24.1113 11.1817 24.7065 12.2953 25.5806 13.1694C26.4547 14.0435 27.5683 14.6388 28.7807 14.8799C29.9931 15.1211 31.2497 14.9973 32.3918 14.5242C33.5338 14.0512 34.5099 13.2501 35.1967 12.2223C35.8834 11.1945 36.25 9.98613 36.25 8.75C36.25 7.0924 35.5915 5.50269 34.4194 4.33058C33.2473 3.15848 31.6576 2.5 30 2.5Z"/>
</mask>
<path d="M30 5C30.7417 5 31.4667 5.21993 32.0834 5.63199C32.7001 6.04404 33.1807 6.62971 33.4646 7.31494C33.7484 8.00016 33.8226 8.75416 33.6779 9.48159C33.5333 10.209 33.1761 10.8772 32.6517 11.4017C32.1272 11.9261 31.459 12.2833 30.7316 12.4279C30.0042 12.5726 29.2502 12.4984 28.5649 12.2145C27.8797 11.9307 27.294 11.4501 26.882 10.8334C26.4699 10.2167 26.25 9.49168 26.25 8.75C26.25 7.75544 26.6451 6.80161 27.3484 6.09835C28.0516 5.39509 29.0054 5 30 5ZM30 2.5C28.7639 2.5 27.5555 2.86656 26.5277 3.55331C25.4999 4.24007 24.6988 5.21619 24.2258 6.35823C23.7527 7.50027 23.6289 8.75693 23.8701 9.96931C24.1113 11.1817 24.7065 12.2953 25.5806 13.1694C26.4547 14.0435 27.5683 14.6388 28.7807 14.8799C29.9931 15.1211 31.2497 14.9973 32.3918 14.5242C33.5338 14.0512 34.5099 13.2501 35.1967 12.2223C35.8834 11.1945 36.25 9.98613 36.25 8.75C36.25 7.0924 35.5915 5.50269 34.4194 4.33058C33.2473 3.15848 31.6576 2.5 30 2.5Z" fill="white"/>
<path d="M30 8C30.1483 8 30.2933 8.04399 30.4167 8.1264L33.7501 3.13758C32.6401 2.39588 31.335 2 30 2V8ZM30.4167 8.1264C30.54 8.20881 30.6361 8.32595 30.6929 8.46299L36.2362 6.16689C35.7253 4.93348 34.8601 3.87928 33.7501 3.13758L30.4167 8.1264ZM30.6929 8.46299C30.7497 8.60003 30.7645 8.75083 30.7356 8.89632L36.6203 10.0669C36.8808 8.75749 36.7471 7.40029 36.2362 6.16689L30.6929 8.46299ZM30.7356 8.89632C30.7067 9.0418 30.6352 9.17544 30.5303 9.28033L34.773 13.523C35.717 12.579 36.3599 11.3762 36.6203 10.0669L30.7356 8.89632ZM30.5303 9.28033C30.4254 9.38522 30.2918 9.45665 30.1463 9.48559L31.3169 15.3703C32.6262 15.1099 33.829 14.467 34.773 13.523L30.5303 9.28033ZM30.1463 9.48559C30.0008 9.51453 29.85 9.49968 29.713 9.44291L27.4169 14.9862C28.6503 15.4971 30.0075 15.6308 31.3169 15.3703L30.1463 9.48559ZM29.713 9.44291C29.5759 9.38614 29.4588 9.29001 29.3764 9.16668L24.3876 12.5001C25.1293 13.6101 26.1835 14.4753 27.4169 14.9862L29.713 9.44291ZM29.3764 9.16668C29.294 9.04334 29.25 8.89834 29.25 8.75H23.25C23.25 10.085 23.6459 11.3901 24.3876 12.5001L29.3764 9.16668ZM29.25 8.75C29.25 8.55109 29.329 8.36032 29.4697 8.21967L25.227 3.97703C23.9612 5.2429 23.25 6.95979 23.25 8.75H29.25ZM29.4697 8.21967C29.6103 8.07902 29.8011 8 30 8V2C28.2098 2 26.4929 2.71116 25.227 3.97703L29.4697 8.21967ZM30 -0.5C28.1705 -0.5 26.3821 0.0425029 24.861 1.05891L28.1944 6.04772C28.7289 5.69061 29.3572 5.5 30 5.5V-0.5ZM24.861 1.05891C23.3398 2.07531 22.1542 3.51996 21.4541 5.21018L26.9974 7.50628C27.2434 6.91242 27.6599 6.40484 28.1944 6.04772L24.861 1.05891ZM21.4541 5.21018C20.754 6.90039 20.5708 8.76026 20.9277 10.5546L26.8125 9.38404C26.687 8.7536 26.7514 8.10014 26.9974 7.50628L21.4541 5.21018ZM20.9277 10.5546C21.2847 12.3489 22.1656 13.9971 23.4593 15.2907L27.7019 11.0481C27.2474 10.5936 26.9379 10.0145 26.8125 9.38404L20.9277 10.5546ZM23.4593 15.2907C24.7529 16.5844 26.4011 17.4654 28.1954 17.8223L29.366 11.9376C28.7355 11.8122 28.1564 11.5026 27.7019 11.0481L23.4593 15.2907ZM28.1954 17.8223C29.9897 18.1792 31.8496 17.996 33.5398 17.2959L31.2437 11.7526C30.6499 11.9986 29.9964 12.063 29.366 11.9376L28.1954 17.8223ZM33.5398 17.2959C35.23 16.5958 36.6747 15.4102 37.6911 13.889L32.7023 10.5556C32.3452 11.0901 31.8376 11.5066 31.2437 11.7526L33.5398 17.2959ZM37.6911 13.889C38.7075 12.3679 39.25 10.5795 39.25 8.75H33.25C33.25 9.39279 33.0594 10.0211 32.7023 10.5556L37.6911 13.889ZM39.25 8.75C39.25 6.29675 38.2755 3.94397 36.5407 2.20926L32.2981 6.4519C32.9076 7.0614 33.25 7.88805 33.25 8.75H39.25ZM36.5407 2.20926C34.806 0.474551 32.4533 -0.5 30 -0.5V5.5C30.862 5.5 31.6886 5.84241 32.2981 6.4519L36.5407 2.20926Z" fill="white" mask="url(#path-3-inside-2_40_49)"/>
<path d="M12.25 35.0012V36V35.0012Z" fill="white" stroke="white" stroke-width="3"/>
<mask id="path-6-inside-3_40_49" fill="white">
<path d="M20 16.25C20.7417 16.25 21.4667 16.4699 22.0834 16.882C22.7001 17.294 23.1807 17.8797 23.4646 18.5649C23.7484 19.2502 23.8226 20.0042 23.6779 20.7316C23.5333 21.459 23.1761 22.1272 22.6517 22.6517C22.1272 23.1761 21.459 23.5333 20.7316 23.6779C20.0042 23.8226 19.2502 23.7484 18.5649 23.4645C17.8797 23.1807 17.294 22.7001 16.882 22.0834C16.4699 21.4667 16.25 20.7417 16.25 20C16.25 19.0054 16.6451 18.0516 17.3484 17.3483C18.0516 16.6451 19.0054 16.25 20 16.25ZM20 13.75C18.7639 13.75 17.5555 14.1166 16.5277 14.8033C15.4999 15.4901 14.6988 16.4662 14.2258 17.6082C13.7527 18.7503 13.6289 20.0069 13.8701 21.2193C14.1113 22.4317 14.7065 23.5453 15.5806 24.4194C16.4547 25.2935 17.5683 25.8888 18.7807 26.1299C19.9931 26.3711 21.2497 26.2473 22.3918 25.7742C23.5338 25.3012 24.5099 24.5001 25.1967 23.4723C25.8834 22.4445 26.25 21.2361 26.25 20C26.25 18.3424 25.5915 16.7527 24.4194 15.5806C23.2473 14.4085 21.6576 13.75 20 13.75Z"/>
</mask>
<path d="M20 16.25C20.7417 16.25 21.4667 16.4699 22.0834 16.882C22.7001 17.294 23.1807 17.8797 23.4646 18.5649C23.7484 19.2502 23.8226 20.0042 23.6779 20.7316C23.5333 21.459 23.1761 22.1272 22.6517 22.6517C22.1272 23.1761 21.459 23.5333 20.7316 23.6779C20.0042 23.8226 19.2502 23.7484 18.5649 23.4645C17.8797 23.1807 17.294 22.7001 16.882 22.0834C16.4699 21.4667 16.25 20.7417 16.25 20C16.25 19.0054 16.6451 18.0516 17.3484 17.3483C18.0516 16.6451 19.0054 16.25 20 16.25ZM20 13.75C18.7639 13.75 17.5555 14.1166 16.5277 14.8033C15.4999 15.4901 14.6988 16.4662 14.2258 17.6082C13.7527 18.7503 13.6289 20.0069 13.8701 21.2193C14.1113 22.4317 14.7065 23.5453 15.5806 24.4194C16.4547 25.2935 17.5683 25.8888 18.7807 26.1299C19.9931 26.3711 21.2497 26.2473 22.3918 25.7742C23.5338 25.3012 24.5099 24.5001 25.1967 23.4723C25.8834 22.4445 26.25 21.2361 26.25 20C26.25 18.3424 25.5915 16.7527 24.4194 15.5806C23.2473 14.4085 21.6576 13.75 20 13.75Z" fill="white"/>
<path d="M16.25 20H13.25H16.25ZM20 13.75V16.75V13.75ZM26.25 20H29.25H26.25ZM20 19.25C20.1483 19.25 20.2933 19.294 20.4167 19.3764L23.7501 14.3876C22.6401 13.6459 21.335 13.25 20 13.25V19.25ZM20.4167 19.3764C20.54 19.4588 20.6361 19.5759 20.6929 19.713L26.2362 17.4169C25.7253 16.1835 24.8601 15.1293 23.7501 14.3876L20.4167 19.3764ZM20.6929 19.713C20.7497 19.85 20.7645 20.0008 20.7356 20.1463L26.6203 21.3169C26.8808 20.0075 26.7471 18.6503 26.2362 17.4169L20.6929 19.713ZM20.7356 20.1463C20.7067 20.2918 20.6352 20.4254 20.5303 20.5303L24.773 24.773C25.717 23.829 26.3599 22.6262 26.6203 21.3169L20.7356 20.1463ZM20.5303 20.5303C20.4254 20.6352 20.2918 20.7067 20.1463 20.7356L21.3169 26.6203C22.6262 26.3599 23.829 25.717 24.773 24.773L20.5303 20.5303ZM20.1463 20.7356C20.0008 20.7645 19.85 20.7497 19.713 20.6929L17.4169 26.2362C18.6503 26.7471 20.0075 26.8808 21.3169 26.6203L20.1463 20.7356ZM19.713 20.6929C19.5759 20.6361 19.4588 20.54 19.3764 20.4167L14.3876 23.7501C15.1293 24.8601 16.1835 25.7253 17.4169 26.2362L19.713 20.6929ZM19.3764 20.4167C19.294 20.2933 19.25 20.1483 19.25 20H13.25C13.25 21.335 13.6459 22.6401 14.3876 23.7501L19.3764 20.4167ZM19.25 20C19.25 19.8011 19.329 19.6103 19.4697 19.4697L15.227 15.227C13.9612 16.4929 13.25 18.2098 13.25 20H19.25ZM19.4697 19.4697C19.6103 19.329 19.8011 19.25 20 19.25V13.25C18.2098 13.25 16.4929 13.9612 15.227 15.227L19.4697 19.4697ZM20 10.75C18.1705 10.75 16.3821 11.2925 14.861 12.3089L18.1944 17.2977C18.7289 16.9406 19.3572 16.75 20 16.75V10.75ZM14.861 12.3089C13.3398 13.3253 12.1542 14.77 11.4541 16.4602L16.9974 18.7563C17.2434 18.1624 17.6599 17.6548 18.1944 17.2977L14.861 12.3089ZM11.4541 16.4602C10.754 18.1504 10.5708 20.0103 10.9277 21.8046L16.8125 20.634C16.687 20.0036 16.7514 19.3501 16.9974 18.7563L11.4541 16.4602ZM10.9277 21.8046C11.2847 23.5989 12.1656 25.2471 13.4593 26.5407L17.7019 22.2981C17.2474 21.8436 16.9379 21.2645 16.8125 20.634L10.9277 21.8046ZM13.4593 26.5407C14.7529 27.8344 16.4011 28.7154 18.1954 29.0723L19.366 23.1876C18.7355 23.0622 18.1564 22.7526 17.7019 22.2981L13.4593 26.5407ZM18.1954 29.0723C19.9897 29.4292 21.8496 29.246 23.5398 28.5459L21.2437 23.0026C20.6499 23.2486 19.9964 23.313 19.366 23.1876L18.1954 29.0723ZM23.5398 28.5459C25.23 27.8458 26.6747 26.6602 27.6911 25.139L22.7023 21.8056C22.3452 22.3401 21.8376 22.7566 21.2437 23.0026L23.5398 28.5459ZM27.6911 25.139C28.7075 23.6179 29.25 21.8295 29.25 20H23.25C23.25 20.6428 23.0594 21.2711 22.7023 21.8056L27.6911 25.139ZM29.25 20C29.25 17.5467 28.2755 15.194 26.5407 13.4593L22.2981 17.7019C22.9076 18.3114 23.25 19.138 23.25 20H29.25ZM26.5407 13.4593C24.806 11.7246 22.4533 10.75 20 10.75V16.75C20.862 16.75 21.6886 17.0924 22.2981 17.7019L26.5407 13.4593Z" fill="white" mask="url(#path-6-inside-3_40_49)"/>
<mask id="path-8-inside-4_40_49" fill="white">
<path d="M10 17.5H7.5C5.84301 17.502 4.25445 18.1611 3.08277 19.3328C1.9111 20.5044 1.25198 22.093 1.25 23.75V28.75H3.75V23.75C3.75099 22.7557 4.1464 21.8025 4.84945 21.0994C5.55249 20.3964 6.50574 20.001 7.5 20H10V17.5Z"/>
</mask>
<path d="M10 17.5H7.5C5.84301 17.502 4.25445 18.1611 3.08277 19.3328C1.9111 20.5044 1.25198 22.093 1.25 23.75V28.75H3.75V23.75C3.75099 22.7557 4.1464 21.8025 4.84945 21.0994C5.55249 20.3964 6.50574 20.001 7.5 20H10V17.5Z" fill="white"/>
<path d="M10 17.5H13V14.5H10V17.5ZM7.5 17.5V14.5L7.49641 14.5L7.5 17.5ZM1.25 23.75L-1.75 23.7464V23.75H1.25ZM1.25 28.75H-1.75V31.75H1.25V28.75ZM3.75 28.75V31.75H6.75V28.75H3.75ZM3.75 23.75L0.75 23.747V23.75H3.75ZM7.5 20V17L7.497 17L7.5 20ZM10 20V23H13V20H10ZM10 14.5H7.5V20.5H10V14.5ZM7.49641 14.5C5.04501 14.5029 2.69486 15.4781 0.961455 17.2115L5.2041 21.4541C5.81404 20.8442 6.641 20.501 7.50359 20.5L7.49641 14.5ZM0.961455 17.2115C-0.771946 18.9449 -1.74706 21.295 -1.75 23.7464L4.25 23.7536C4.25103 22.891 4.59415 22.064 5.2041 21.4541L0.961455 17.2115ZM-1.75 23.75V28.75H4.25V23.75H-1.75ZM1.25 31.75H3.75V25.75H1.25V31.75ZM6.75 28.75V23.75H0.75V28.75H6.75ZM6.75 23.753C6.7502 23.5533 6.8296 23.3619 6.97077 23.2208L2.72813 18.9781C1.4632 20.243 0.751788 21.9581 0.750001 23.747L6.75 23.753ZM6.97077 23.2208C7.11194 23.0796 7.30335 23.0002 7.503 23L7.497 17C5.70814 17.0018 3.99305 17.7132 2.72813 18.9781L6.97077 23.2208ZM7.5 23H10V17H7.5V23ZM13 20V17.5H7V20H13Z" fill="white" mask="url(#path-8-inside-4_40_49)"/>
<mask id="path-10-inside-5_40_49" fill="white">
<path d="M10 5C10.7417 5 11.4667 5.21993 12.0834 5.63199C12.7001 6.04404 13.1807 6.62971 13.4646 7.31494C13.7484 8.00016 13.8226 8.75416 13.6779 9.48159C13.5333 10.209 13.1761 10.8772 12.6517 11.4017C12.1272 11.9261 11.459 12.2833 10.7316 12.4279C10.0042 12.5726 9.25016 12.4984 8.56494 12.2145C7.87972 11.9307 7.29405 11.4501 6.88199 10.8334C6.46994 10.2167 6.25 9.49168 6.25 8.75C6.25 7.75544 6.64509 6.80161 7.34835 6.09835C8.05161 5.39509 9.00544 5 10 5ZM10 2.5C8.76387 2.5 7.5555 2.86656 6.52769 3.55331C5.49988 4.24007 4.6988 5.21619 4.22576 6.35823C3.75271 7.50027 3.62894 8.75693 3.87009 9.96931C4.11125 11.1817 4.70651 12.2953 5.58059 13.1694C6.45466 14.0435 7.56831 14.6388 8.78069 14.8799C9.99307 15.1211 11.2497 14.9973 12.3918 14.5242C13.5338 14.0512 14.5099 13.2501 15.1967 12.2223C15.8834 11.1945 16.25 9.98613 16.25 8.75C16.25 7.0924 15.5915 5.50269 14.4194 4.33058C13.2473 3.15848 11.6576 2.5 10 2.5Z"/>
</mask>
<path d="M10 5C10.7417 5 11.4667 5.21993 12.0834 5.63199C12.7001 6.04404 13.1807 6.62971 13.4646 7.31494C13.7484 8.00016 13.8226 8.75416 13.6779 9.48159C13.5333 10.209 13.1761 10.8772 12.6517 11.4017C12.1272 11.9261 11.459 12.2833 10.7316 12.4279C10.0042 12.5726 9.25016 12.4984 8.56494 12.2145C7.87972 11.9307 7.29405 11.4501 6.88199 10.8334C6.46994 10.2167 6.25 9.49168 6.25 8.75C6.25 7.75544 6.64509 6.80161 7.34835 6.09835C8.05161 5.39509 9.00544 5 10 5ZM10 2.5C8.76387 2.5 7.5555 2.86656 6.52769 3.55331C5.49988 4.24007 4.6988 5.21619 4.22576 6.35823C3.75271 7.50027 3.62894 8.75693 3.87009 9.96931C4.11125 11.1817 4.70651 12.2953 5.58059 13.1694C6.45466 14.0435 7.56831 14.6388 8.78069 14.8799C9.99307 15.1211 11.2497 14.9973 12.3918 14.5242C13.5338 14.0512 14.5099 13.2501 15.1967 12.2223C15.8834 11.1945 16.25 9.98613 16.25 8.75C16.25 7.0924 15.5915 5.50269 14.4194 4.33058C13.2473 3.15848 11.6576 2.5 10 2.5Z" fill="white"/>
<path d="M16.25 8.75H19.25H16.25ZM10 8C10.1483 8 10.2933 8.04399 10.4167 8.1264L13.7501 3.13758C12.6401 2.39588 11.335 2 10 2V8ZM10.4167 8.1264C10.54 8.20881 10.6361 8.32594 10.6929 8.46299L16.2362 6.16689C15.7253 4.93348 14.8601 3.87928 13.7501 3.13758L10.4167 8.1264ZM10.6929 8.46299C10.7497 8.60003 10.7645 8.75083 10.7356 8.89632L16.6203 10.0669C16.8808 8.75749 16.7471 7.40029 16.2362 6.16689L10.6929 8.46299ZM10.7356 8.89632C10.7067 9.0418 10.6352 9.17544 10.5303 9.28033L14.773 13.523C15.717 12.579 16.3599 11.3762 16.6203 10.0669L10.7356 8.89632ZM10.5303 9.28033C10.4254 9.38522 10.2918 9.45665 10.1463 9.48559L11.3169 15.3703C12.6262 15.1099 13.829 14.467 14.773 13.523L10.5303 9.28033ZM10.1463 9.48559C10.0008 9.51453 9.85003 9.49968 9.71299 9.44291L7.41689 14.9862C8.65029 15.4971 10.0075 15.6308 11.3169 15.3703L10.1463 9.48559ZM9.71299 9.44291C9.57595 9.38614 9.45881 9.29002 9.3764 9.16668L4.38758 12.5001C5.12928 13.6101 6.18349 14.4753 7.41689 14.9862L9.71299 9.44291ZM9.3764 9.16668C9.29399 9.04334 9.25 8.89834 9.25 8.75H3.25C3.25 10.085 3.64588 11.3901 4.38758 12.5001L9.3764 9.16668ZM9.25 8.75C9.25 8.55109 9.32902 8.36032 9.46967 8.21967L5.22703 3.97703C3.96116 5.2429 3.25 6.95979 3.25 8.75H9.25ZM9.46967 8.21967C9.61032 8.07902 9.80109 8 10 8V2C8.20979 2 6.4929 2.71116 5.22703 3.97703L9.46967 8.21967ZM10 -0.5C8.17053 -0.5 6.38213 0.0425026 4.86098 1.05891L8.1944 6.04772C8.72886 5.69061 9.35721 5.5 10 5.5V-0.5ZM4.86098 1.05891C3.33982 2.07531 2.15423 3.51996 1.45412 5.21018L6.99739 7.50628C7.24338 6.91242 7.65994 6.40484 8.1944 6.04772L4.86098 1.05891ZM1.45412 5.21018C0.754007 6.90039 0.570826 8.76026 0.927739 10.5546L6.81245 9.38404C6.68705 8.7536 6.75141 8.10014 6.99739 7.50628L1.45412 5.21018ZM0.927739 10.5546C1.28465 12.3489 2.16563 13.9971 3.45927 15.2907L7.70191 11.0481C7.24739 10.5936 6.93785 10.0145 6.81245 9.38404L0.927739 10.5546ZM3.45927 15.2907C4.7529 16.5844 6.40109 17.4654 8.19542 17.8223L9.36596 11.9376C8.73552 11.8122 8.15643 11.5026 7.70191 11.0481L3.45927 15.2907ZM8.19542 17.8223C9.98974 18.1792 11.8496 17.996 13.5398 17.2959L11.2437 11.7526C10.6499 11.9986 9.9964 12.063 9.36596 11.9376L8.19542 17.8223ZM13.5398 17.2959C15.23 16.5958 16.6747 15.4102 17.6911 13.889L12.7023 10.5556C12.3452 11.0901 11.8376 11.5066 11.2437 11.7526L13.5398 17.2959ZM17.6911 13.889C18.7075 12.3679 19.25 10.5795 19.25 8.75H13.25C13.25 9.39279 13.0594 10.0211 12.7023 10.5556L17.6911 13.889ZM19.25 8.75C19.25 6.29675 18.2755 3.94397 16.5407 2.20926L12.2981 6.4519C12.9076 7.0614 13.25 7.88805 13.25 8.75H19.25ZM16.5407 2.20926C14.806 0.474551 12.4533 -0.5 10 -0.5V5.5C10.862 5.5 11.6886 5.84241 12.2981 6.4519L16.5407 2.20926Z" fill="white" mask="url(#path-10-inside-5_40_49)"/>
</svg>
