<svg width="40" height="40" viewBox="0 0 40 40" fill="none" xmlns="http://www.w3.org/2000/svg">
<mask id="path-2-inside-1_40_100" fill="white">
<path d="M15.005 10C15.005 8.67525 15.5313 7.40475 16.468 6.46801C17.4048 5.53126 18.6752 5.005 20 5.005C21.3248 5.005 22.5953 5.53126 23.532 6.46801C24.4687 7.40475 24.995 8.67525 24.995 10C24.995 11.3248 24.4687 12.5953 23.532 13.532C22.5953 14.4687 21.3248 14.995 20 14.995C18.6752 14.995 17.4048 14.4687 16.468 13.532C15.5313 12.5953 15.005 11.3248 15.005 10ZM20 7.50501C19.6724 7.50501 19.3479 7.56954 19.0452 7.69493C18.7425 7.82031 18.4675 8.00409 18.2358 8.23577C18.0041 8.46746 17.8203 8.7425 17.6949 9.04521C17.5695 9.34792 17.505 9.67236 17.505 10C17.505 10.3277 17.5695 10.6521 17.6949 10.9548C17.8203 11.2575 18.0041 11.5326 18.2358 11.7642C18.4675 11.9959 18.7425 12.1797 19.0452 12.3051C19.3479 12.4305 19.6724 12.495 20 12.495C20.6617 12.495 21.2963 12.2321 21.7642 11.7642C22.2321 11.2963 22.495 10.6617 22.495 10C22.495 9.33829 22.2321 8.70368 21.7642 8.23577C21.2963 7.76787 20.6617 7.50501 20 7.50501Z"/>
</mask>
<path d="M15.005 10C15.005 8.67525 15.5313 7.40475 16.468 6.46801C17.4048 5.53126 18.6752 5.005 20 5.005C21.3248 5.005 22.5953 5.53126 23.532 6.46801C24.4687 7.40475 24.995 8.67525 24.995 10C24.995 11.3248 24.4687 12.5953 23.532 13.532C22.5953 14.4687 21.3248 14.995 20 14.995C18.6752 14.995 17.4048 14.4687 16.468 13.532C15.5313 12.5953 15.005 11.3248 15.005 10ZM20 7.50501C19.6724 7.50501 19.3479 7.56954 19.0452 7.69493C18.7425 7.82031 18.4675 8.00409 18.2358 8.23577C18.0041 8.46746 17.8203 8.7425 17.6949 9.04521C17.5695 9.34792 17.505 9.67236 17.505 10C17.505 10.3277 17.5695 10.6521 17.6949 10.9548C17.8203 11.2575 18.0041 11.5326 18.2358 11.7642C18.4675 11.9959 18.7425 12.1797 19.0452 12.3051C19.3479 12.4305 19.6724 12.495 20 12.495C20.6617 12.495 21.2963 12.2321 21.7642 11.7642C22.2321 11.2963 22.495 10.6617 22.495 10C22.495 9.33829 22.2321 8.70368 21.7642 8.23577C21.2963 7.76787 20.6617 7.50501 20 7.50501Z" fill="white"/>
<path d="M20 5.005V2.005V5.005ZM24.995 10H27.995H24.995ZM20 12.495V9.49501V12.495ZM22.495 10H25.495H22.495ZM18.005 10C18.005 9.4709 18.2152 8.96346 18.5893 8.58933L14.3467 4.34669C12.8473 5.84604 12.005 7.8796 12.005 10H18.005ZM18.5893 8.58933C18.9635 8.21519 19.4709 8.005 20 8.005V2.005C17.8796 2.005 15.846 2.84733 14.3467 4.34669L18.5893 8.58933ZM20 8.005C20.5291 8.005 21.0365 8.21519 21.4107 8.58933L25.6533 4.34669C24.154 2.84733 22.1204 2.005 20 2.005V8.005ZM21.4107 8.58933C21.7848 8.96346 21.995 9.4709 21.995 10H27.995C27.995 7.8796 27.1527 5.84604 25.6533 4.34669L21.4107 8.58933ZM21.995 10C21.995 10.5291 21.7848 11.0365 21.4107 11.4107L25.6533 15.6533C27.1527 14.154 27.995 12.1204 27.995 10H21.995ZM21.4107 11.4107C21.0365 11.7848 20.5291 11.995 20 11.995V17.995C22.1204 17.995 24.154 17.1527 25.6533 15.6533L21.4107 11.4107ZM20 11.995C19.4709 11.995 18.9635 11.7848 18.5893 11.4107L14.3467 15.6533C15.846 17.1527 17.8796 17.995 20 17.995V11.995ZM18.5893 11.4107C18.2152 11.0365 18.005 10.5291 18.005 10H12.005C12.005 12.1204 12.8473 14.154 14.3467 15.6533L18.5893 11.4107ZM20 4.50501C19.2784 4.50501 18.5638 4.64714 17.8972 4.92329L20.1933 10.4666C20.132 10.4919 20.0663 10.505 20 10.505V4.50501ZM17.8972 4.92329C17.2305 5.19944 16.6247 5.60419 16.1145 6.11445L20.3571 10.3571C20.3102 10.404 20.2545 10.4412 20.1933 10.4666L17.8972 4.92329ZM16.1145 6.11445C15.6042 6.62471 15.1994 7.23048 14.9233 7.89716L20.4666 10.1933C20.4412 10.2545 20.404 10.3102 20.3571 10.3571L16.1145 6.11445ZM14.9233 7.89716C14.6471 8.56384 14.505 9.27839 14.505 10H20.505C20.505 10.0663 20.4919 10.132 20.4666 10.1933L14.9233 7.89716ZM14.505 10C14.505 10.7216 14.6471 11.4362 14.9233 12.1029L20.4666 9.80675C20.4919 9.86802 20.505 9.93369 20.505 10H14.505ZM14.9233 12.1029C15.1994 12.7695 15.6042 13.3753 16.1145 13.8856L20.3571 9.64292C20.404 9.68981 20.4412 9.74548 20.4666 9.80675L14.9233 12.1029ZM16.1145 13.8856C16.6247 14.3958 17.2305 14.8006 17.8972 15.0767L20.1933 9.53345C20.2545 9.55882 20.3102 9.59602 20.3571 9.64292L16.1145 13.8856ZM17.8972 15.0767C18.5638 15.3529 19.2784 15.495 20 15.495V9.49501C20.0663 9.49501 20.132 9.50807 20.1933 9.53345L17.8972 15.0767ZM20 15.495C21.4574 15.495 22.855 14.9161 23.8856 13.8856L19.6429 9.64292C19.7376 9.54821 19.8661 9.49501 20 9.49501V15.495ZM23.8856 13.8856C24.9161 12.855 25.495 11.4574 25.495 10H19.495C19.495 9.86607 19.5482 9.73762 19.6429 9.64292L23.8856 13.8856ZM25.495 10C25.495 8.54264 24.9161 7.14496 23.8856 6.11445L19.6429 10.3571C19.5482 10.2624 19.495 10.1339 19.495 10H25.495ZM23.8856 6.11445C22.855 5.08394 21.4574 4.50501 20 4.50501V10.505C19.8661 10.505 19.7376 10.4518 19.6429 10.3571L23.8856 6.11445Z" fill="white" mask="url(#path-2-inside-1_40_100)"/>
<mask id="path-4-inside-2_40_100" fill="white">
<path d="M27.5 11.25C27.5 10.7575 27.597 10.2699 27.7855 9.81494C27.9739 9.35997 28.2501 8.94657 28.5983 8.59835C28.9466 8.25013 29.36 7.97391 29.8149 7.78545C30.2699 7.597 30.7575 7.5 31.25 7.5C31.7425 7.5 32.2301 7.597 32.6851 7.78545C33.14 7.97391 33.5534 8.25013 33.9017 8.59835C34.2499 8.94657 34.5261 9.35997 34.7145 9.81494C34.903 10.2699 35 10.7575 35 11.25C35 12.2446 34.6049 13.1984 33.9017 13.9017C33.1984 14.6049 32.2446 15 31.25 15C30.2554 15 29.3016 14.6049 28.5983 13.9017C27.8951 13.1984 27.5 12.2446 27.5 11.25ZM31.25 10C30.9185 10 30.6005 10.1317 30.3661 10.3661C30.1317 10.6005 30 10.9185 30 11.25C30 11.5815 30.1317 11.8995 30.3661 12.1339C30.6005 12.3683 30.9185 12.5 31.25 12.5C31.5815 12.5 31.8995 12.3683 32.1339 12.1339C32.3683 11.8995 32.5 11.5815 32.5 11.25C32.5 10.9185 32.3683 10.6005 32.1339 10.3661C31.8995 10.1317 31.5815 10 31.25 10Z"/>
</mask>
<path d="M27.5 11.25C27.5 10.7575 27.597 10.2699 27.7855 9.81494C27.9739 9.35997 28.2501 8.94657 28.5983 8.59835C28.9466 8.25013 29.36 7.97391 29.8149 7.78545C30.2699 7.597 30.7575 7.5 31.25 7.5C31.7425 7.5 32.2301 7.597 32.6851 7.78545C33.14 7.97391 33.5534 8.25013 33.9017 8.59835C34.2499 8.94657 34.5261 9.35997 34.7145 9.81494C34.903 10.2699 35 10.7575 35 11.25C35 12.2446 34.6049 13.1984 33.9017 13.9017C33.1984 14.6049 32.2446 15 31.25 15C30.2554 15 29.3016 14.6049 28.5983 13.9017C27.8951 13.1984 27.5 12.2446 27.5 11.25ZM31.25 10C30.9185 10 30.6005 10.1317 30.3661 10.3661C30.1317 10.6005 30 10.9185 30 11.25C30 11.5815 30.1317 11.8995 30.3661 12.1339C30.6005 12.3683 30.9185 12.5 31.25 12.5C31.5815 12.5 31.8995 12.3683 32.1339 12.1339C32.3683 11.8995 32.5 11.5815 32.5 11.25C32.5 10.9185 32.3683 10.6005 32.1339 10.3661C31.8995 10.1317 31.5815 10 31.25 10Z" fill="white"/>
<path d="M31.25 7.5V10.5V7.5ZM35 11.25H38H35ZM31.25 10V13V10ZM30.5 11.25C30.5 11.1515 30.5194 11.054 30.5571 10.963L25.0138 8.66689C24.6746 9.48584 24.5 10.3636 24.5 11.25H30.5ZM30.5571 10.963C30.5948 10.872 30.65 10.7893 30.7197 10.7197L26.477 6.47703C25.8502 7.10382 25.353 7.84794 25.0138 8.66689L30.5571 10.963ZM30.7197 10.7197C30.7893 10.65 30.872 10.5948 30.963 10.5571L28.6669 5.01381C27.8479 5.35303 27.1038 5.85023 26.477 6.47703L30.7197 10.7197ZM30.963 10.5571C31.054 10.5194 31.1515 10.5 31.25 10.5V4.5C30.3636 4.5 29.4858 4.67459 28.6669 5.01381L30.963 10.5571ZM31.25 10.5C31.3485 10.5 31.446 10.5194 31.537 10.5571L33.8331 5.01381C33.0142 4.67459 32.1364 4.5 31.25 4.5V10.5ZM31.537 10.5571C31.628 10.5948 31.7107 10.65 31.7803 10.7197L36.023 6.47703C35.3962 5.85023 34.6521 5.35303 33.8331 5.01381L31.537 10.5571ZM31.7803 10.7197C31.85 10.7893 31.9052 10.872 31.9429 10.963L37.4862 8.66689C37.147 7.84794 36.6498 7.10382 36.023 6.47703L31.7803 10.7197ZM31.9429 10.963C31.9806 11.054 32 11.1515 32 11.25H38C38 10.3636 37.8254 9.48584 37.4862 8.66689L31.9429 10.963ZM32 11.25C32 11.4489 31.921 11.6397 31.7803 11.7803L36.023 16.023C37.2888 14.7571 38 13.0402 38 11.25H32ZM31.7803 11.7803C31.6397 11.921 31.4489 12 31.25 12V18C33.0402 18 34.7571 17.2888 36.023 16.023L31.7803 11.7803ZM31.25 12C31.0511 12 30.8603 11.921 30.7197 11.7803L26.477 16.023C27.7429 17.2888 29.4598 18 31.25 18V12ZM30.7197 11.7803C30.579 11.6397 30.5 11.4489 30.5 11.25H24.5C24.5 13.0402 25.2112 14.7571 26.477 16.023L30.7197 11.7803ZM31.25 7C30.1228 7 29.0418 7.44777 28.2448 8.2448L32.4874 12.4874C32.1592 12.8156 31.7141 13 31.25 13V7ZM28.2448 8.2448C27.4478 9.04183 27 10.1228 27 11.25H33C33 11.7141 32.8156 12.1592 32.4874 12.4874L28.2448 8.2448ZM27 11.25C27 12.3772 27.4478 13.4582 28.2448 14.2552L32.4874 10.0126C32.8156 10.3408 33 10.7859 33 11.25H27ZM28.2448 14.2552C29.0418 15.0522 30.1228 15.5 31.25 15.5V9.5C31.7141 9.5 32.1592 9.68437 32.4874 10.0126L28.2448 14.2552ZM31.25 15.5C32.3772 15.5 33.4582 15.0522 34.2552 14.2552L30.0126 10.0126C30.3408 9.68437 30.7859 9.5 31.25 9.5V15.5ZM34.2552 14.2552C35.0522 13.4582 35.5 12.3772 35.5 11.25H29.5C29.5 10.7859 29.6844 10.3408 30.0126 10.0126L34.2552 14.2552ZM35.5 11.25C35.5 10.1228 35.0522 9.04183 34.2552 8.2448L30.0126 12.4874C29.6844 12.1592 29.5 11.7141 29.5 11.25H35.5ZM34.2552 8.2448C33.4582 7.44777 32.3772 7 31.25 7V13C30.7859 13 30.3408 12.8156 30.0126 12.4874L34.2552 8.2448Z" fill="white" mask="url(#path-4-inside-2_40_100)"/>
<mask id="path-6-inside-3_40_100" fill="white">
<path d="M8.75 7.5C7.75544 7.5 6.80161 7.89509 6.09835 8.59835C5.39509 9.30161 5 10.2554 5 11.25C5 12.2446 5.39509 13.1984 6.09835 13.9017C6.80161 14.6049 7.75544 15 8.75 15C9.74456 15 10.6984 14.6049 11.4017 13.9017C12.1049 13.1984 12.5 12.2446 12.5 11.25C12.5 10.2554 12.1049 9.30161 11.4017 8.59835C10.6984 7.89509 9.74456 7.5 8.75 7.5ZM7.5 11.25C7.5 10.9185 7.6317 10.6005 7.86612 10.3661C8.10054 10.1317 8.41848 10 8.75 10C9.08152 10 9.39946 10.1317 9.63388 10.3661C9.8683 10.6005 10 10.9185 10 11.25C10 11.5815 9.8683 11.8995 9.63388 12.1339C9.39946 12.3683 9.08152 12.5 8.75 12.5C8.41848 12.5 8.10054 12.3683 7.86612 12.1339C7.6317 11.8995 7.5 11.5815 7.5 11.25Z"/>
</mask>
<path d="M8.75 7.5C7.75544 7.5 6.80161 7.89509 6.09835 8.59835C5.39509 9.30161 5 10.2554 5 11.25C5 12.2446 5.39509 13.1984 6.09835 13.9017C6.80161 14.6049 7.75544 15 8.75 15C9.74456 15 10.6984 14.6049 11.4017 13.9017C12.1049 13.1984 12.5 12.2446 12.5 11.25C12.5 10.2554 12.1049 9.30161 11.4017 8.59835C10.6984 7.89509 9.74456 7.5 8.75 7.5ZM7.5 11.25C7.5 10.9185 7.6317 10.6005 7.86612 10.3661C8.10054 10.1317 8.41848 10 8.75 10C9.08152 10 9.39946 10.1317 9.63388 10.3661C9.8683 10.6005 10 10.9185 10 11.25C10 11.5815 9.8683 11.8995 9.63388 12.1339C9.39946 12.3683 9.08152 12.5 8.75 12.5C8.41848 12.5 8.10054 12.3683 7.86612 12.1339C7.6317 11.8995 7.5 11.5815 7.5 11.25Z" fill="white"/>
<path d="M5 11.25H2H5ZM8.75 15V18V15ZM8.75 10V13V10ZM10 11.25H7H10ZM8.75 4.5C6.95979 4.5 5.2429 5.21116 3.97703 6.47703L8.21967 10.7197C8.36032 10.579 8.55109 10.5 8.75 10.5V4.5ZM3.97703 6.47703C2.71116 7.7429 2 9.45979 2 11.25H8C8 11.0511 8.07902 10.8603 8.21967 10.7197L3.97703 6.47703ZM2 11.25C2 13.0402 2.71116 14.7571 3.97703 16.023L8.21967 11.7803C8.07902 11.6397 8 11.4489 8 11.25H2ZM3.97703 16.023C5.2429 17.2888 6.95979 18 8.75 18V12C8.55109 12 8.36032 11.921 8.21967 11.7803L3.97703 16.023ZM8.75 18C10.5402 18 12.2571 17.2888 13.523 16.023L9.28033 11.7803C9.13968 11.921 8.94891 12 8.75 12V18ZM13.523 16.023C14.7888 14.7571 15.5 13.0402 15.5 11.25H9.5C9.5 11.4489 9.42098 11.6397 9.28033 11.7803L13.523 16.023ZM15.5 11.25C15.5 9.45979 14.7888 7.7429 13.523 6.47703L9.28033 10.7197C9.42098 10.8603 9.5 11.0511 9.5 11.25H15.5ZM13.523 6.47703C12.2571 5.21116 10.5402 4.5 8.75 4.5V10.5C8.94891 10.5 9.13968 10.579 9.28033 10.7197L13.523 6.47703ZM10.5 11.25C10.5 11.7141 10.3156 12.1592 9.98744 12.4874L5.7448 8.2448C4.94777 9.04182 4.5 10.1228 4.5 11.25H10.5ZM9.98744 12.4874C9.65925 12.8156 9.21413 13 8.75 13V7C7.62283 7 6.54182 7.44777 5.7448 8.2448L9.98744 12.4874ZM8.75 13C8.28587 13 7.84075 12.8156 7.51256 12.4874L11.7552 8.2448C10.9582 7.44777 9.87717 7 8.75 7V13ZM7.51256 12.4874C7.18438 12.1592 7 11.7141 7 11.25H13C13 10.1228 12.5522 9.04182 11.7552 8.2448L7.51256 12.4874ZM7 11.25C7 10.7859 7.18438 10.3407 7.51256 10.0126L11.7552 14.2552C12.5522 13.4582 13 12.3772 13 11.25H7ZM7.51256 10.0126C7.84075 9.68438 8.28587 9.5 8.75 9.5V15.5C9.87717 15.5 10.9582 15.0522 11.7552 14.2552L7.51256 10.0126ZM8.75 9.5C9.21413 9.5 9.65925 9.68438 9.98744 10.0126L5.7448 14.2552C6.54182 15.0522 7.62283 15.5 8.75 15.5V9.5ZM9.98744 10.0126C10.3156 10.3407 10.5 10.7859 10.5 11.25H4.5C4.5 12.3772 4.94777 13.4582 5.7448 14.2552L9.98744 10.0126Z" fill="white" mask="url(#path-6-inside-3_40_100)"/>
<mask id="path-8-inside-4_40_100" fill="white">
<path d="M10.67 17.5C10.23 18.2596 9.99886 19.1222 10 20H5V26.25C4.9998 26.8718 5.15424 27.484 5.44942 28.0313C5.7446 28.5786 6.17125 29.0439 6.69097 29.3854C7.21069 29.7268 7.80716 29.9336 8.42669 29.9873C9.04622 30.0409 9.66935 29.9396 10.24 29.6925C10.425 30.52 10.715 31.31 11.09 32.0475C10.1412 32.4306 9.11277 32.5749 8.09514 32.4677C7.07751 32.3605 6.10177 32.005 5.25361 31.4326C4.40544 30.8602 3.7108 30.0882 3.23068 29.1846C2.75057 28.281 2.49966 27.2733 2.5 26.25V20C2.5 19.337 2.76339 18.7011 3.23223 18.2322C3.70107 17.7634 4.33696 17.5 5 17.5H10.67Z"/>
</mask>
<path d="M10.67 17.5C10.23 18.2596 9.99886 19.1222 10 20H5V26.25C4.9998 26.8718 5.15424 27.484 5.44942 28.0313C5.7446 28.5786 6.17125 29.0439 6.69097 29.3854C7.21069 29.7268 7.80716 29.9336 8.42669 29.9873C9.04622 30.0409 9.66935 29.9396 10.24 29.6925C10.425 30.52 10.715 31.31 11.09 32.0475C10.1412 32.4306 9.11277 32.5749 8.09514 32.4677C7.07751 32.3605 6.10177 32.005 5.25361 31.4326C4.40544 30.8602 3.7108 30.0882 3.23068 29.1846C2.75057 28.281 2.49966 27.2733 2.5 26.25V20C2.5 19.337 2.76339 18.7011 3.23223 18.2322C3.70107 17.7634 4.33696 17.5 5 17.5H10.67Z" fill="white"/>
<path d="M10.67 17.5L13.266 19.0036L15.8745 14.5H10.67V17.5ZM10 20V23H13.0039L13 19.9961L10 20ZM5 20V17H2V20H5ZM5 26.25L8 26.251V26.25H5ZM10.24 29.6925L13.1677 29.038L12.3764 25.4984L9.048 26.9395L10.24 29.6925ZM11.09 32.0475L12.2132 34.8293L15.2471 33.6043L13.7642 30.6878L11.09 32.0475ZM2.5 26.25L5.5 26.251V26.25H2.5ZM5 17.5V20.5V17.5ZM8.07402 15.9964C7.36872 17.2141 6.99817 18.5967 7 20.0039L13 19.9961C12.9995 19.6476 13.0913 19.3052 13.266 19.0036L8.07402 15.9964ZM10 17H5V23H10V17ZM2 20V26.25H8V20H2ZM2 26.249C1.99964 27.3683 2.27763 28.4702 2.80895 29.4554L8.08988 26.6072C8.03085 26.4978 7.99996 26.3753 8 26.251L2 26.249ZM2.80895 29.4554C3.34028 30.4405 4.10825 31.2781 5.04375 31.8927L8.33819 26.8781C8.23425 26.8098 8.14892 26.7167 8.08988 26.6072L2.80895 29.4554ZM5.04375 31.8927C5.97924 32.5073 7.05289 32.8796 8.16804 32.9761L8.68534 26.9984C8.56144 26.9877 8.44214 26.9463 8.33819 26.8781L5.04375 31.8927ZM8.16804 32.9761C9.28319 33.0726 10.4048 32.8903 11.432 32.4455L9.048 26.9395C8.93387 26.9889 8.80924 27.0092 8.68534 26.9984L8.16804 32.9761ZM7.31227 30.347C7.55423 31.4293 7.93193 32.4555 8.41584 33.4072L13.7642 30.6878C13.4981 30.1645 13.2958 29.6107 13.1677 29.038L7.31227 30.347ZM9.9668 29.2657C9.47341 29.4649 8.93864 29.5399 8.40947 29.4842L7.78081 35.4512C9.2869 35.6098 10.8089 35.3963 12.2132 34.8293L9.9668 29.2657ZM8.40947 29.4842C7.88031 29.4284 7.37292 29.2436 6.93188 28.9459L3.57534 33.9192C4.83062 34.7664 6.27472 35.2925 7.78081 35.4512L8.40947 29.4842ZM6.93188 28.9459C6.49083 28.6483 6.12962 28.2469 5.87995 27.777L0.581409 30.5922C1.29198 31.9296 2.32005 33.072 3.57534 33.9192L6.93188 28.9459ZM5.87995 27.777C5.63029 27.3071 5.49982 26.7831 5.5 26.251L-0.5 26.249C-0.500503 27.7634 -0.129164 29.2548 0.581409 30.5922L5.87995 27.777ZM5.5 26.25V20H-0.5V26.25H5.5ZM5.5 20C5.5 20.1326 5.44732 20.2598 5.35355 20.3536L1.11091 16.1109C0.079463 17.1424 -0.5 18.5413 -0.5 20H5.5ZM5.35355 20.3536C5.25979 20.4473 5.13261 20.5 5 20.5V14.5C3.54131 14.5 2.14236 15.0795 1.11091 16.1109L5.35355 20.3536ZM5 20.5H10.67V14.5H5V20.5Z" fill="white" mask="url(#path-8-inside-4_40_100)"/>
<mask id="path-10-inside-5_40_100" fill="white">
<path d="M28.91 32.0475C29.8589 32.4306 30.8873 32.5749 31.9049 32.4677C32.9225 32.3605 33.8983 32.005 34.7464 31.4326C35.5946 30.8602 36.2892 30.0882 36.7694 29.1846C37.2495 28.281 37.5004 27.2733 37.5 26.25V20C37.5 19.337 37.2366 18.7011 36.7678 18.2322C36.299 17.7634 35.6631 17.5 35 17.5H29.33C29.755 18.235 30 19.0875 30 20H35V26.25C35.0002 26.8718 34.8458 27.484 34.5506 28.0313C34.2554 28.5786 33.8288 29.0439 33.3091 29.3854C32.7893 29.7268 32.1929 29.9336 31.5733 29.9873C30.9538 30.0409 30.3307 29.9396 29.76 29.6925C29.5725 30.52 29.285 31.31 28.91 32.0475Z"/>
</mask>
<path d="M28.91 32.0475C29.8589 32.4306 30.8873 32.5749 31.9049 32.4677C32.9225 32.3605 33.8983 32.005 34.7464 31.4326C35.5946 30.8602 36.2892 30.0882 36.7694 29.1846C37.2495 28.281 37.5004 27.2733 37.5 26.25V20C37.5 19.337 37.2366 18.7011 36.7678 18.2322C36.299 17.7634 35.6631 17.5 35 17.5H29.33C29.755 18.235 30 19.0875 30 20H35V26.25C35.0002 26.8718 34.8458 27.484 34.5506 28.0313C34.2554 28.5786 33.8288 29.0439 33.3091 29.3854C32.7893 29.7268 32.1929 29.9336 31.5733 29.9873C30.9538 30.0409 30.3307 29.9396 29.76 29.6925C29.5725 30.52 29.285 31.31 28.91 32.0475Z" fill="white"/>
<path d="M28.91 32.0475L26.2359 30.6878L24.7529 33.6043L27.7868 34.8293L28.91 32.0475ZM37.5 26.25H34.5V26.251L37.5 26.25ZM29.33 17.5V14.5H24.1299L26.7329 19.0017L29.33 17.5ZM30 20H27V23H30V20ZM35 20H38V17H35V20ZM35 26.25H32L32 26.251L35 26.25ZM29.76 29.6925L30.952 26.9395L27.6334 25.5026L26.8342 29.0295L29.76 29.6925ZM27.7868 34.8293C29.1911 35.3963 30.7131 35.6098 32.2192 35.4512L31.5906 29.4842C31.0614 29.5399 30.5266 29.4649 30.0332 29.2657L27.7868 34.8293ZM32.2192 35.4512C33.7253 35.2925 35.1694 34.7664 36.4247 33.9192L33.0682 28.9459C32.6271 29.2436 32.1197 29.4284 31.5906 29.4842L32.2192 35.4512ZM36.4247 33.9192C37.68 33.072 38.7081 31.9296 39.4186 30.5922L34.1201 27.777C33.8704 28.2469 33.5092 28.6483 33.0682 28.9459L36.4247 33.9192ZM39.4186 30.5922C40.1292 29.2548 40.5005 27.7634 40.5 26.249L34.5 26.251C34.5002 26.7831 34.3697 27.3071 34.1201 27.777L39.4186 30.5922ZM40.5 26.25V20H34.5V26.25H40.5ZM40.5 20C40.5 18.5413 39.9206 17.1424 38.8891 16.1109L34.6465 20.3536C34.5527 20.2598 34.5 20.1326 34.5 20H40.5ZM38.8891 16.1109C37.8577 15.0795 36.4587 14.5 35 14.5V20.5C34.8674 20.5 34.7402 20.4473 34.6465 20.3536L38.8891 16.1109ZM35 14.5H29.33V20.5H35V14.5ZM26.7329 19.0017C26.903 19.2958 27 19.6325 27 20H33C33 18.5425 32.6071 17.1742 31.9271 15.9983L26.7329 19.0017ZM30 23H35V17H30V23ZM32 20V26.25H38V20H32ZM32 26.251C32.0001 26.3753 31.9692 26.4978 31.9102 26.6072L37.1911 29.4554C37.7224 28.4702 38.0004 27.3683 38 26.249L32 26.251ZM31.9102 26.6072C31.8511 26.7167 31.7658 26.8098 31.6618 26.8781L34.9563 31.8927C35.8918 31.2781 36.6598 30.4405 37.1911 29.4554L31.9102 26.6072ZM31.6618 26.8781C31.5579 26.9463 31.4386 26.9877 31.3147 26.9984L31.832 32.9761C32.9471 32.8796 34.0208 32.5073 34.9563 31.8927L31.6618 26.8781ZM31.3147 26.9984C31.1908 27.0092 31.0662 26.9889 30.952 26.9395L28.568 32.4455C29.5952 32.8903 30.7168 33.0726 31.832 32.9761L31.3147 26.9984ZM26.8342 29.0295C26.7019 29.6136 26.4993 30.1697 26.2359 30.6878L31.5842 33.4072C32.0708 32.4503 32.4432 31.4264 32.6859 30.3555L26.8342 29.0295Z" fill="white" mask="url(#path-10-inside-5_40_100)"/>
<mask id="path-12-inside-6_40_100" fill="white">
<path d="M15 17.5C14.337 17.5 13.7011 17.7634 13.2322 18.2322C12.7634 18.7011 12.5 19.337 12.5 20V27.5C12.5 29.4891 13.2902 31.3968 14.6967 32.8033C16.1032 34.2098 18.0109 35 20 35C21.9891 35 23.8968 34.2098 25.3033 32.8033C26.7098 31.3968 27.5 29.4891 27.5 27.5V20C27.5 19.337 27.2366 18.7011 26.7678 18.2322C26.2989 17.7634 25.663 17.5 25 17.5H15ZM15 20H25V27.5C25 28.8261 24.4732 30.0979 23.5355 31.0355C22.5979 31.9732 21.3261 32.5 20 32.5C18.6739 32.5 17.4021 31.9732 16.4645 31.0355C15.5268 30.0979 15 28.8261 15 27.5V20Z"/>
</mask>
<path d="M15 17.5C14.337 17.5 13.7011 17.7634 13.2322 18.2322C12.7634 18.7011 12.5 19.337 12.5 20V27.5C12.5 29.4891 13.2902 31.3968 14.6967 32.8033C16.1032 34.2098 18.0109 35 20 35C21.9891 35 23.8968 34.2098 25.3033 32.8033C26.7098 31.3968 27.5 29.4891 27.5 27.5V20C27.5 19.337 27.2366 18.7011 26.7678 18.2322C26.2989 17.7634 25.663 17.5 25 17.5H15ZM15 20H25V27.5C25 28.8261 24.4732 30.0979 23.5355 31.0355C22.5979 31.9732 21.3261 32.5 20 32.5C18.6739 32.5 17.4021 31.9732 16.4645 31.0355C15.5268 30.0979 15 28.8261 15 27.5V20Z" fill="white"/>
<path d="M15 20V17H12V20H15ZM25 20H28V17H25V20ZM15 27.5H12H15ZM15 14.5C13.5413 14.5 12.1424 15.0795 11.1109 16.1109L15.3536 20.3536C15.2598 20.4473 15.1326 20.5 15 20.5V14.5ZM11.1109 16.1109C10.0795 17.1424 9.5 18.5413 9.5 20H15.5C15.5 20.1326 15.4473 20.2598 15.3536 20.3536L11.1109 16.1109ZM9.5 20V27.5H15.5V20H9.5ZM9.5 27.5C9.5 30.2848 10.6062 32.9555 12.5754 34.9246L16.818 30.682C15.9741 29.8381 15.5 28.6935 15.5 27.5H9.5ZM12.5754 34.9246C14.5445 36.8938 17.2152 38 20 38V32C18.8065 32 17.6619 31.5259 16.818 30.682L12.5754 34.9246ZM20 38C22.7848 38 25.4555 36.8938 27.4246 34.9246L23.182 30.682C22.3381 31.5259 21.1935 32 20 32V38ZM27.4246 34.9246C29.3938 32.9555 30.5 30.2848 30.5 27.5H24.5C24.5 28.6935 24.0259 29.8381 23.182 30.682L27.4246 34.9246ZM30.5 27.5V20H24.5V27.5H30.5ZM30.5 20C30.5 18.5413 29.9205 17.1424 28.8891 16.1109L24.6464 20.3536C24.5527 20.2598 24.5 20.1326 24.5 20H30.5ZM28.8891 16.1109C27.8576 15.0795 26.4587 14.5 25 14.5V20.5C24.8674 20.5 24.7402 20.4473 24.6464 20.3536L28.8891 16.1109ZM25 14.5H15V20.5H25V14.5ZM15 23H25V17H15V23ZM22 20V27.5H28V20H22ZM22 27.5C22 28.0304 21.7893 28.5391 21.4142 28.9142L25.6569 33.1569C27.1571 31.6566 28 29.6217 28 27.5H22ZM21.4142 28.9142C21.0391 29.2893 20.5304 29.5 20 29.5V35.5C22.1217 35.5 24.1566 34.6571 25.6569 33.1569L21.4142 28.9142ZM20 29.5C19.4696 29.5 18.9609 29.2893 18.5858 28.9142L14.3431 33.1569C15.8434 34.6571 17.8783 35.5 20 35.5V29.5ZM18.5858 28.9142C18.2107 28.5391 18 28.0304 18 27.5H12C12 29.6217 12.8429 31.6566 14.3431 33.1569L18.5858 28.9142ZM18 27.5V20H12V27.5H18Z" fill="white" mask="url(#path-12-inside-6_40_100)"/>
<rect width="40" height="40" stroke="white"/>
</svg>
