<svg width="40" height="40" viewBox="0 0 40 40" fill="none" xmlns="http://www.w3.org/2000/svg">
<mask id="path-1-inside-1_40_44" fill="white">
<path d="M25 7.08334C25 5.285 22.8767 4.33334 21.5334 5.52667L14.045 12.1817C13.8165 12.3853 13.5211 12.498 13.215 12.4983H7.08337C6.08881 12.4983 5.13498 12.8934 4.43172 13.5967C3.72846 14.2999 3.33337 15.2538 3.33337 16.2483V23.7433C3.33337 24.7379 3.72846 25.6917 4.43172 26.395C5.13498 27.0983 6.08881 27.4933 7.08337 27.4933H13.2167C13.5228 27.4937 13.8181 27.6064 14.0467 27.81L21.5317 34.4667C22.875 35.66 25 34.7067 25 32.91V7.08334ZM15.7084 14.05L22.5 8.01167V31.9817L15.7084 25.9417C15.022 25.331 14.1354 24.9936 13.2167 24.9933H7.08337C6.75185 24.9933 6.43391 24.8616 6.19949 24.6272C5.96507 24.3928 5.83337 24.0749 5.83337 23.7433V16.25C5.83337 15.9185 5.96507 15.6005 6.19949 15.3661C6.43391 15.1317 6.75185 15 7.08337 15H13.2167C14.1354 14.9998 15.022 14.6623 15.7084 14.0517V14.05Z"/>
</mask>
<path d="M25 7.08334C25 5.285 22.8767 4.33334 21.5334 5.52667L14.045 12.1817C13.8165 12.3853 13.5211 12.498 13.215 12.4983H7.08337C6.08881 12.4983 5.13498 12.8934 4.43172 13.5967C3.72846 14.2999 3.33337 15.2538 3.33337 16.2483V23.7433C3.33337 24.7379 3.72846 25.6917 4.43172 26.395C5.13498 27.0983 6.08881 27.4933 7.08337 27.4933H13.2167C13.5228 27.4937 13.8181 27.6064 14.0467 27.81L21.5317 34.4667C22.875 35.66 25 34.7067 25 32.91V7.08334ZM15.7084 14.05L22.5 8.01167V31.9817L15.7084 25.9417C15.022 25.331 14.1354 24.9936 13.2167 24.9933H7.08337C6.75185 24.9933 6.43391 24.8616 6.19949 24.6272C5.96507 24.3928 5.83337 24.0749 5.83337 23.7433V16.25C5.83337 15.9185 5.96507 15.6005 6.19949 15.3661C6.43391 15.1317 6.75185 15 7.08337 15H13.2167C14.1354 14.9998 15.022 14.6623 15.7084 14.0517V14.05Z" fill="white"/>
<path d="M21.5334 5.52667L19.541 3.28383L19.5405 3.28425L21.5334 5.52667ZM14.045 12.1817L12.0522 9.93925L12.0494 9.94167L14.045 12.1817ZM13.215 12.4983V15.4983L13.2186 15.4983L13.215 12.4983ZM7.08337 12.4983V9.49834V12.4983ZM3.33337 16.2483H0.333374H3.33337ZM3.33337 23.7433H0.333374H3.33337ZM13.2167 27.4933L13.2203 24.4933H13.2167V27.4933ZM14.0467 27.81L12.0511 30.05L12.0531 30.0517L14.0467 27.81ZM21.5317 34.4667L19.5381 36.7084L19.5393 36.7095L21.5317 34.4667ZM15.7084 14.05L13.715 11.808L12.7084 12.703V14.05H15.7084ZM22.5 8.01167H25.5V1.33019L20.5067 5.76966L22.5 8.01167ZM22.5 31.9817L20.5064 34.2234L25.5 38.6644V31.9817H22.5ZM15.7084 25.9417L13.7143 28.183L13.7147 28.1834L15.7084 25.9417ZM13.2167 24.9933L13.2175 21.9933H13.2167V24.9933ZM13.2167 15V18H13.2175L13.2167 15ZM15.7084 14.0517L17.7025 16.293L18.7084 15.3981V14.0517H15.7084ZM28 7.08334C28 2.69256 22.816 0.374522 19.541 3.28383L23.5258 7.76951C22.9374 8.29215 22 7.87744 22 7.08334H28ZM19.5405 3.28425L12.0522 9.93925L16.0379 14.4241L23.5262 7.76909L19.5405 3.28425ZM12.0494 9.94167C12.3694 9.6566 12.7829 9.49885 13.2114 9.49834L13.2186 15.4983C14.2594 15.4971 15.2635 15.114 16.0406 14.4217L12.0494 9.94167ZM13.215 9.49834H7.08337V15.4983H13.215V9.49834ZM7.08337 9.49834C5.29316 9.49834 3.57627 10.2095 2.3104 11.4754L6.55304 15.718C6.6937 15.5774 6.88446 15.4983 7.08337 15.4983V9.49834ZM2.3104 11.4754C1.04453 12.7412 0.333374 14.4581 0.333374 16.2483H6.33337C6.33337 16.0494 6.41239 15.8587 6.55304 15.718L2.3104 11.4754ZM0.333374 16.2483V23.7433H6.33337V16.2483H0.333374ZM0.333374 23.7433C0.333374 25.5336 1.04453 27.2504 2.3104 28.5163L6.55304 24.2737C6.41239 24.133 6.33337 23.9423 6.33337 23.7433H0.333374ZM2.3104 28.5163C3.57627 29.7822 5.29316 30.4933 7.08337 30.4933V24.4933C6.88446 24.4933 6.6937 24.4143 6.55304 24.2737L2.3104 28.5163ZM7.08337 30.4933H13.2167V24.4933H7.08337V30.4933ZM13.2131 30.4933C12.7846 30.4928 12.3711 30.3351 12.0511 30.05L16.0423 25.57C15.2652 24.8777 14.2611 24.4946 13.2203 24.4933L13.2131 30.4933ZM12.0531 30.0517L19.5381 36.7084L23.5254 32.2249L16.0404 25.5683L12.0531 30.0517ZM19.5393 36.7095C22.8145 39.619 28 37.2989 28 32.91H22C22 32.1145 22.9356 31.701 23.5241 32.2238L19.5393 36.7095ZM28 32.91V7.08334H22V32.91H28ZM17.7017 16.292L24.4934 10.2537L20.5067 5.76966L13.715 11.808L17.7017 16.292ZM19.5 8.01167V31.9817H25.5V8.01167H19.5ZM24.4937 29.7399L17.702 23.6999L13.7147 28.1834L20.5064 34.2234L24.4937 29.7399ZM17.7025 23.7003C16.467 22.6012 14.8711 21.9938 13.2175 21.9933L13.2159 27.9933C13.3997 27.9934 13.577 28.0609 13.7143 28.183L17.7025 23.7003ZM13.2167 21.9933H7.08337V27.9933H13.2167V21.9933ZM7.08337 21.9933C7.54751 21.9933 7.99262 22.1777 8.32081 22.5059L4.07817 26.7485C4.8752 27.5456 5.9562 27.9933 7.08337 27.9933V21.9933ZM8.32081 22.5059C8.649 22.8341 8.83337 23.2792 8.83337 23.7433H2.83337C2.83337 24.8705 3.28114 25.9515 4.07817 26.7485L8.32081 22.5059ZM8.83337 23.7433V16.25H2.83337V23.7433H8.83337ZM8.83337 16.25C8.83337 16.7141 8.649 17.1593 8.32081 17.4874L4.07817 13.2448C3.28114 14.0418 2.83337 15.1228 2.83337 16.25H8.83337ZM8.32081 17.4874C7.99262 17.8156 7.54751 18 7.08337 18V12C5.9562 12 4.8752 12.4478 4.07817 13.2448L8.32081 17.4874ZM7.08337 18H13.2167V12H7.08337V18ZM13.2175 18C14.8711 17.9996 16.467 17.3922 17.7025 16.293L13.7143 11.8103C13.577 11.9325 13.3997 12 13.2159 12L13.2175 18ZM18.7084 14.0517V14.05H12.7084V14.0517H18.7084Z" fill="white" mask="url(#path-1-inside-1_40_44)"/>
<mask id="path-3-inside-2_40_44" fill="white">
<path d="M31.6534 9.82835C31.7854 9.73073 31.9353 9.66006 32.0946 9.62038C32.2539 9.5807 32.4194 9.57278 32.5818 9.59708C32.7441 9.62138 32.9001 9.67741 33.0408 9.76199C33.1815 9.84657 33.3042 9.95803 33.4018 10.09C35.5271 12.9565 36.672 16.4316 36.6668 20C36.6714 23.5686 35.5259 27.0437 33.4001 29.91C33.1987 30.1646 32.9062 30.3308 32.5845 30.3736C32.2627 30.4164 31.9369 30.3323 31.6761 30.1392C31.4152 29.946 31.2396 29.659 31.1866 29.3388C31.1335 29.0186 31.2071 28.6903 31.3918 28.4233C33.1988 25.9872 34.172 23.0332 34.1668 20C34.172 16.9668 33.1988 14.0128 31.3918 11.5767C31.2941 11.4447 31.2235 11.2948 31.1838 11.1355C31.1441 10.9762 31.1362 10.8107 31.1605 10.6483C31.1848 10.486 31.2408 10.33 31.3254 10.1893C31.41 10.0486 31.5215 9.92596 31.6534 9.82835Z"/>
</mask>
<path d="M31.6534 9.82835C31.7854 9.73073 31.9353 9.66006 32.0946 9.62038C32.2539 9.5807 32.4194 9.57278 32.5818 9.59708C32.7441 9.62138 32.9001 9.67741 33.0408 9.76199C33.1815 9.84657 33.3042 9.95803 33.4018 10.09C35.5271 12.9565 36.672 16.4316 36.6668 20C36.6714 23.5686 35.5259 27.0437 33.4001 29.91C33.1987 30.1646 32.9062 30.3308 32.5845 30.3736C32.2627 30.4164 31.9369 30.3323 31.6761 30.1392C31.4152 29.946 31.2396 29.659 31.1866 29.3388C31.1335 29.0186 31.2071 28.6903 31.3918 28.4233C33.1988 25.9872 34.172 23.0332 34.1668 20C34.172 16.9668 33.1988 14.0128 31.3918 11.5767C31.2941 11.4447 31.2235 11.2948 31.1838 11.1355C31.1441 10.9762 31.1362 10.8107 31.1605 10.6483C31.1848 10.486 31.2408 10.33 31.3254 10.1893C31.41 10.0486 31.5215 9.92596 31.6534 9.82835Z" fill="white"/>
<path d="M33.4018 10.09L30.9898 11.8739L30.9919 11.8768L33.4018 10.09ZM36.6668 20L33.6668 19.9956L33.6668 20.0039L36.6668 20ZM33.4001 29.91L35.7529 31.7713L35.7819 31.7346L35.8097 31.6971L33.4001 29.91ZM31.3918 28.4233L28.9823 26.6361L28.9527 26.6759L28.9246 26.7166L31.3918 28.4233ZM34.1668 20L31.1668 19.9949L31.1668 20.0052L34.1668 20ZM31.3918 11.5767L28.9799 13.3607L28.9823 13.3639L31.3918 11.5767ZM33.4375 12.2403C33.2527 12.3769 33.0428 12.4759 32.8198 12.5314L31.3694 6.70935C30.8279 6.84426 30.3181 7.08453 29.8694 7.41644L33.4375 12.2403ZM32.8198 12.5314C32.5968 12.587 32.365 12.598 32.1377 12.564L33.0258 6.63012C32.4739 6.54751 31.911 6.57443 31.3694 6.70935L32.8198 12.5314ZM32.1377 12.564C31.9105 12.53 31.6921 12.4516 31.4951 12.3332L34.5865 7.19083C34.1081 6.90326 33.5778 6.71274 33.0258 6.63012L32.1377 12.564ZM31.4951 12.3332C31.2982 12.2147 31.1264 12.0587 30.9898 11.8739L35.8138 8.30611C35.4819 7.85737 35.0648 7.4784 34.5865 7.19083L31.4951 12.3332ZM30.9919 11.8768C32.7331 14.2252 33.671 17.0722 33.6668 19.9956L39.6668 20.0044C39.6729 15.791 38.3211 11.6878 35.8116 8.30326L30.9919 11.8768ZM33.6668 20.0039C33.6706 22.9276 32.7321 25.7746 30.9905 28.1229L35.8097 31.6971C38.3197 28.3127 39.6722 24.2096 39.6668 19.9961L33.6668 20.0039ZM31.0473 28.0487C31.3292 27.6924 31.7387 27.4596 32.1892 27.3997L32.9797 33.3474C34.0737 33.202 35.0682 32.6368 35.7529 31.7713L31.0473 28.0487ZM32.1892 27.3997C32.6396 27.3399 33.0957 27.4576 33.461 27.7279L29.8911 32.5504C30.7781 33.207 31.8858 33.4928 32.9797 33.3474L32.1892 27.3997ZM33.461 27.7279C33.8262 27.9983 34.072 28.4001 34.1462 28.8484L28.2269 29.8292C28.4073 30.9179 29.0041 31.8938 29.8911 32.5504L33.461 27.7279ZM34.1462 28.8484C34.2205 29.2967 34.1175 29.7564 33.859 30.1301L28.9246 26.7166C28.2967 27.6242 28.0465 28.7404 28.2269 29.8292L34.1462 28.8484ZM33.8013 30.2106C35.9928 27.2561 37.1731 23.6735 37.1668 19.9949L31.1668 20.0052C31.1709 22.3929 30.4048 24.7183 28.9823 26.6361L33.8013 30.2106ZM37.1668 20.0052C37.1731 16.3265 35.9928 12.744 33.8013 9.78942L28.9823 13.3639C30.4048 15.2817 31.1709 17.6071 31.1668 19.9949L37.1668 20.0052ZM33.8037 9.79267C33.9403 9.97745 34.0393 10.1873 34.0948 10.4103L28.2728 11.8607C28.4077 12.4023 28.6479 12.912 28.9799 13.3607L33.8037 9.79267ZM34.0948 10.4103C34.1504 10.6333 34.1615 10.8651 34.1275 11.0924L28.1935 10.2043C28.1109 10.7563 28.1379 11.3191 28.2728 11.8607L34.0948 10.4103ZM34.1275 11.0924C34.0934 11.3197 34.015 11.538 33.8966 11.735L28.7543 8.64362C28.4667 9.12196 28.2762 9.65227 28.1935 10.2043L34.1275 11.0924ZM33.8966 11.735C33.7782 11.932 33.6221 12.1037 33.4373 12.2403L29.8695 7.41636C29.4208 7.74825 29.0418 8.16527 28.7543 8.64362L33.8966 11.735Z" fill="white" mask="url(#path-3-inside-2_40_44)"/>
<mask id="path-5-inside-3_40_44" fill="white">
<path d="M28.5717 13.95C28.7161 13.8717 28.8744 13.8227 29.0377 13.8056C29.201 13.7885 29.3661 13.8038 29.5235 13.8505C29.6809 13.8973 29.8276 13.9746 29.9551 14.078C30.0826 14.1814 30.1885 14.309 30.2667 14.4533C31.1601 16.1033 31.6667 17.995 31.6667 20C31.6695 21.9367 31.1883 23.8433 30.2667 25.5467C30.1089 25.8384 29.8417 26.0555 29.5238 26.1502C29.2059 26.2449 28.8635 26.2095 28.5717 26.0517C28.28 25.8939 28.0629 25.6266 27.9682 25.3088C27.8735 24.9909 27.9089 24.6484 28.0667 24.3567C28.7667 23.0617 29.1667 21.58 29.1667 20C29.1667 18.42 28.7667 16.9383 28.0667 15.6433C27.9885 15.4989 27.9395 15.3405 27.9226 15.1771C27.9056 15.0137 27.921 14.8486 27.9679 14.6912C28.0148 14.5338 28.0923 14.3871 28.1959 14.2597C28.2995 14.1322 28.4272 14.0264 28.5717 13.9483V13.95Z"/>
</mask>
<path d="M28.5717 13.95C28.7161 13.8717 28.8744 13.8227 29.0377 13.8056C29.201 13.7885 29.3661 13.8038 29.5235 13.8505C29.6809 13.8973 29.8276 13.9746 29.9551 14.078C30.0826 14.1814 30.1885 14.309 30.2667 14.4533C31.1601 16.1033 31.6667 17.995 31.6667 20C31.6695 21.9367 31.1883 23.8433 30.2667 25.5467C30.1089 25.8384 29.8417 26.0555 29.5238 26.1502C29.2059 26.2449 28.8635 26.2095 28.5717 26.0517C28.28 25.8939 28.0629 25.6266 27.9682 25.3088C27.8735 24.9909 27.9089 24.6484 28.0667 24.3567C28.7667 23.0617 29.1667 21.58 29.1667 20C29.1667 18.42 28.7667 16.9383 28.0667 15.6433C27.9885 15.4989 27.9395 15.3405 27.9226 15.1771C27.9056 15.0137 27.921 14.8486 27.9679 14.6912C28.0148 14.5338 28.0923 14.3871 28.1959 14.2597C28.2995 14.1322 28.4272 14.0264 28.5717 13.9483V13.95Z" fill="white"/>
<path d="M28.5717 13.95H25.5717V18.9899L30.002 16.5871L28.5717 13.95ZM30.2667 14.4533L32.9049 13.025L32.9045 13.0242L30.2667 14.4533ZM31.6667 20H28.6667L28.6667 20.0043L31.6667 20ZM30.2667 25.5467L27.6281 24.1192L27.628 24.1194L30.2667 25.5467ZM28.0667 24.3567L30.7054 25.784L30.7058 25.7832L28.0667 24.3567ZM28.0667 15.6433L30.7058 14.2168L30.7047 14.2148L28.0667 15.6433ZM28.5717 13.9483H31.5717V8.91766L27.1457 11.3089L28.5717 13.9483ZM30.002 16.5871C29.7999 16.6967 29.5782 16.7654 29.3496 16.7893L28.7258 10.8218C28.1706 10.8799 27.6322 11.0467 27.1415 11.3129L30.002 16.5871ZM29.3496 16.7893C29.121 16.8132 28.8899 16.7918 28.6695 16.7264L30.3775 10.9746C29.8423 10.8157 29.2811 10.7638 28.7258 10.8218L29.3496 16.7893ZM28.6695 16.7264C28.4491 16.661 28.2438 16.5528 28.0653 16.4079L31.8449 11.748C31.4113 11.3964 30.9127 11.1336 30.3775 10.9746L28.6695 16.7264ZM28.0653 16.4079C27.8868 16.2631 27.7385 16.0846 27.629 15.8825L32.9045 13.0242C32.6385 12.5334 32.2785 12.0997 31.8449 11.748L28.0653 16.4079ZM27.6286 15.8817C28.29 17.1033 28.6667 18.5053 28.6667 20H34.6667C34.6667 17.4847 34.0301 15.1034 32.9049 13.025L27.6286 15.8817ZM28.6667 20.0043C28.6688 21.441 28.3118 22.8555 27.6281 24.1192L32.9053 26.9742C34.0647 24.8311 34.6702 22.4323 34.6667 19.9957L28.6667 20.0043ZM27.628 24.1194C27.8488 23.7113 28.2226 23.4076 28.6672 23.2751L30.3804 29.0253C31.4608 28.7034 32.3691 27.9656 32.9054 26.974L27.628 24.1194ZM28.6672 23.2751C29.1119 23.1426 29.5909 23.1922 29.999 23.413L27.1444 28.6904C28.136 29.2267 29.3 29.3472 30.3804 29.0253L28.6672 23.2751ZM29.999 23.413C30.4071 23.6337 30.7108 24.0075 30.8433 24.4522L25.0931 26.1654C25.415 27.2458 26.1528 28.154 27.1444 28.6904L29.999 23.413ZM30.8433 24.4522C30.9758 24.8968 30.9262 25.3759 30.7054 25.784L25.428 22.9294C24.8917 23.9209 24.7712 25.085 25.0931 26.1654L30.8433 24.4522ZM30.7058 25.7832C31.6354 24.0636 32.1667 22.0933 32.1667 20H26.1667C26.1667 21.0667 25.8981 22.0598 25.4276 22.9301L30.7058 25.7832ZM32.1667 20C32.1667 17.9067 31.6354 15.9364 30.7058 14.2168L25.4276 17.0699C25.8981 17.9403 26.1667 18.9333 26.1667 20H32.1667ZM30.7047 14.2148C30.8142 14.4169 30.8828 14.6388 30.9065 14.8675L24.9386 15.4867C24.9962 16.0422 25.1628 16.5809 25.4287 17.0719L30.7047 14.2148ZM30.9065 14.8675C30.9303 15.0963 30.9087 15.3274 30.843 15.5478L25.0928 13.8346C24.9334 14.3698 24.8809 14.9312 24.9386 15.4867L30.9065 14.8675ZM30.843 15.5478C30.7774 15.7682 30.6689 15.9734 30.5239 16.1519L25.8679 12.3675C25.5157 12.8008 25.2523 13.2994 25.0928 13.8346L30.843 15.5478ZM30.5239 16.1519C30.3788 16.3303 30.2001 16.4785 29.9977 16.5878L27.1457 11.3089C26.6544 11.5744 26.2202 11.9341 25.8679 12.3675L30.5239 16.1519ZM25.5717 13.9483V13.95H31.5717V13.9483H25.5717Z" fill="white" mask="url(#path-5-inside-3_40_44)"/>
</svg>
