<?xml version="1.0" encoding="iso-8859-1"?>
<!-- Generator: Adobe Illustrator 18.0.0, SVG Export Plug-In . SVG Version: 6.00 Build 0)  -->
<!DOCTYPE svg PUBLIC "-//W3C//DTD SVG 1.1//EN" "http://www.w3.org/Graphics/SVG/1.1/DTD/svg11.dtd">
<svg version="1.1" id="Capa_1" xmlns="http://www.w3.org/2000/svg" xmlns:xlink="http://www.w3.org/1999/xlink" x="0px" y="0px"
	 viewBox="0 0 502.078 502.078" style="enable-background:new 0 0 502.078 502.078; fill:#FFFFFF;" xml:space="preserve">
<g>
	<path d="M405.638,275.506c-17.169,0-34.252,7.236-46.87,19.854c-12.061,12.061-19.091,27.756-19.796,44.196
		c-0.717,16.716,5.16,32.192,16.548,43.579c5.354,5.355,11.034,8.07,16.883,8.07c13.482,0,21.873-13.451,29.988-26.46
		c3.568-5.721,7.259-11.636,10.693-15.069c3.014-3.014,8.645-6.517,14.093-9.904c12.662-7.873,25.755-16.015,27.213-28.69
		c0.762-6.622-1.877-13.006-7.844-18.973C435.838,281.403,421.31,275.506,405.638,275.506z M418.2,325.336
		c-6.553,4.074-12.741,7.922-17.138,12.318c-4.808,4.809-9.022,11.563-13.096,18.093c-4.306,6.903-11.514,18.458-15.564,18.458
		c-1.109,0-2.927-1.155-4.862-3.091c-7.98-7.979-12.094-18.929-11.583-30.83c0.521-12.176,5.789-23.861,14.832-32.903
		c9.453-9.453,22.155-14.875,34.849-14.875c11.132,0,21.391,4.128,28.887,11.625c2.025,2.025,3.11,3.85,2.977,5.008
		C436.981,313.657,425.679,320.685,418.2,325.336z"/>
	<path d="M318.013,304.404c-6.673-6.672-15.395-10.499-23.928-10.499c-6.799,0-13.017,2.473-17.508,6.964
		c-5.264,5.265-7.726,12.919-6.755,21.001c0.894,7.438,4.548,14.695,10.288,20.435c6.673,6.674,15.394,10.501,23.928,10.501
		c6.8,0,13.019-2.474,17.511-6.966c5.263-5.264,7.725-12.918,6.752-21C327.407,317.402,323.753,310.145,318.013,304.404z
		 M309.527,333.818c-1.642,1.642-3.892,1.987-5.489,1.987c-3.999,0-8.45-2.064-11.907-5.522c-3.016-3.016-4.995-6.821-5.43-10.441
		c-0.202-1.686-0.226-4.83,1.897-6.952c1.641-1.642,3.889-1.985,5.486-1.985c3.999,0,8.45,2.064,11.906,5.521
		c3.017,3.016,4.996,6.822,5.432,10.443C311.625,328.553,311.648,331.698,309.527,333.818z"/>
	<path d="M358.679,264.79c-0.894-7.436-4.548-14.694-10.288-20.436c-6.673-6.673-15.395-10.5-23.928-10.5
		c-6.799,0-13.017,2.475-17.509,6.966c-5.264,5.264-7.725,12.918-6.753,21.001c0.893,7.436,4.548,14.693,10.288,20.434
		c6.674,6.673,15.395,10.5,23.929,10.5c6.799,0,13.016-2.474,17.507-6.964C357.189,280.528,359.65,272.874,358.679,264.79z
		 M339.903,273.771c-1.641,1.641-3.889,1.985-5.485,1.985c-3.999,0-8.45-2.064-11.907-5.521c-3.017-3.016-4.996-6.822-5.432-10.442
		c-0.202-1.686-0.226-4.829,1.896-6.95c1.642-1.643,3.891-1.987,5.487-1.987c3.999,0,8.449,2.064,11.906,5.521
		c3.017,3.016,4.996,6.822,5.432,10.443C342.003,268.504,342.025,271.649,339.903,273.771z"/>
	<path d="M370.537,251.879c6.673,6.673,15.395,10.499,23.929,10.499c6.799,0,13.017-2.473,17.508-6.964
		c5.264-5.264,7.726-12.919,6.754-21.001c-0.893-7.439-4.548-14.696-10.288-20.438c-6.673-6.672-15.394-10.499-23.927-10.499
		c-6.8,0-13.019,2.475-17.51,6.966c-5.263,5.264-7.725,12.917-6.754,21C361.143,238.88,364.796,246.138,370.537,251.879z
		 M379.024,222.463c1.642-1.642,3.891-1.986,5.488-1.986c3.999,0,8.449,2.063,11.906,5.521c3.016,3.016,4.995,6.822,5.431,10.443
		c0.202,1.686,0.225,4.83-1.898,6.952c-1.641,1.642-3.89,1.985-5.486,1.985c-4,0-8.451-2.064-11.908-5.521
		c-3.016-3.016-4.995-6.821-5.43-10.442C376.925,227.73,376.902,224.585,379.024,222.463z"/>
	<path d="M481.578,75.289H20.5c-11.304,0-20.5,9.196-20.5,20.5v310.499c0,11.304,9.196,20.5,20.5,20.5h461.078
		c11.304,0,20.5-9.196,20.5-20.5V95.789C502.078,84.486,492.882,75.289,481.578,75.289z M485.078,95.789v65.489l-68.989-68.989
		h65.489C483.508,92.289,485.078,93.86,485.078,95.789z M20.5,92.289h64.592L17,160.382V95.789C17,93.86,18.57,92.289,20.5,92.289z
		 M17,406.289V342.71l67.077,67.078H20.5C18.57,409.789,17,408.218,17,406.289z M481.578,409.789H108.119L17,318.669V184.423
		l92.134-92.134h282.912l92.522,92.522c0.164,0.164,0.337,0.313,0.511,0.462v221.016
		C485.078,408.218,483.508,409.789,481.578,409.789z"/>
	<path d="M163.039,180.746h176c4.694,0,8.5-3.806,8.5-8.5c0-4.694-3.806-8.5-8.5-8.5h-176c-4.694,0-8.5,3.806-8.5,8.5
		C154.539,176.94,158.345,180.746,163.039,180.746z"/>
	<path d="M236.039,251.746h-176c-4.694,0-8.5,3.806-8.5,8.5s3.806,8.5,8.5,8.5h176c4.694,0,8.5-3.806,8.5-8.5
		S240.733,251.746,236.039,251.746z"/>
</g>
<g>
</g>
<g>
</g>
<g>
</g>
<g>
</g>
<g>
</g>
<g>
</g>
<g>
</g>
<g>
</g>
<g>
</g>
<g>
</g>
<g>
</g>
<g>
</g>
<g>
</g>
<g>
</g>
<g>
</g>
</svg>
